<svg width="24" height="24" viewBox="0 0 24 24" fill="none" xmlns="http://www.w3.org/2000/svg">
<mask id="mask0_184_6285" style="mask-type:alpha" maskUnits="userSpaceOnUse" x="0" y="0" width="24" height="24">
<path d="M24 0H0V24H24V0Z" fill="#D9D9D9"/>
</mask>
<g mask="url(#mask0_184_6285)">
<path d="M6 22C5.45 22 4.97901 21.8042 4.58801 21.4125C4.19601 21.0208 4 20.55 4 20V10C4 9.45 4.19601 8.9792 4.58801 8.5875C4.97901 8.1958 5.45 8 6 8H7V6C7 4.6167 7.48801 3.4375 8.46301 2.4625C9.43801 1.4875 10.617 1 12 1C13.383 1 14.562 1.4875 15.538 2.4625C16.513 3.4375 17 4.6167 17 6V8H18C18.55 8 19.021 8.1958 19.413 8.5875C19.804 8.9792 20 9.45 20 10V20C20 20.55 19.804 21.0208 19.413 21.4125C19.021 21.8042 18.55 22 18 22H6ZM6 20H18V10H6V20ZM12 17C12.55 17 13.021 16.8042 13.413 16.4125C13.804 16.0208 14 15.55 14 15C14 14.45 13.804 13.9792 13.413 13.5875C13.021 13.1958 12.55 13 12 13C11.45 13 10.979 13.1958 10.588 13.5875C10.196 13.9792 10 14.45 10 15C10 15.55 10.196 16.0208 10.588 16.4125C10.979 16.8042 11.45 17 12 17ZM9 8H15V6C15 5.1667 14.708 4.4583 14.125 3.875C13.542 3.2917 12.833 3 12 3C11.167 3 10.458 3.2917 9.875 3.875C9.292 4.4583 9 5.1667 9 6V8Z" fill="white"/>
</g>
</svg>
