<svg width="57" height="56" viewBox="0 0 57 56" fill="none" xmlns="http://www.w3.org/2000/svg">
<path fill-rule="evenodd" clip-rule="evenodd" d="M45.7481 50.0583C52.2935 44.9331 56.5 36.9578 56.5 28C56.5 12.536 43.964 0 28.5 0C13.036 0 0.499992 12.536 0.499992 28C0.499992 36.9577 4.70643 44.933 11.2518 50.0583C11.4523 36.0267 28.5 34.0784 28.5 34.0784C28.5 50.1588 14.0384 50.3989 11.5978 50.3249C16.2948 53.8866 22.1506 56 28.5 56C34.8484 56 40.7033 53.8873 45.4 50.3266C42.9529 50.4004 28.5 50.1556 28.5 34.08C28.5 34.08 45.5464 36.0296 45.7481 50.0583ZM5.49999 12.0315C5.49999 31.3825 28.5 34.0602 28.5 34.0602C28.5 10.2214 5.49999 12.0315 5.49999 12.0315ZM28.5 34.0602C28.5 10.2232 51.5 12.0314 51.5 12.0314C51.5 31.3826 28.5019 34.0602 28.5019 34.0602L28.5 34.0602Z" fill="white"/>
</svg>
