<svg width="218" height="56" viewBox="0 0 218 56" fill="none" xmlns="http://www.w3.org/2000/svg">
<g id="logo">
<path id="logoIcon" fill-rule="evenodd" clip-rule="evenodd" d="M45.7481 50.0583C52.2935 44.9331 56.5 36.9578 56.5 28C56.5 12.536 43.964 0 28.5 0C13.036 0 0.499992 12.536 0.499992 28C0.499992 36.9577 4.70643 44.933 11.2518 50.0583C11.4523 36.0267 28.5 34.0784 28.5 34.0784C28.5 50.1588 14.0384 50.3989 11.5978 50.3249C16.2948 53.8866 22.1506 56 28.5 56C34.8484 56 40.7033 53.8873 45.4 50.3266C42.9529 50.4004 28.5 50.1556 28.5 34.08C28.5 34.08 45.5464 36.0296 45.7481 50.0583ZM5.49999 12.0315C5.49999 31.3825 28.5 34.0602 28.5 34.0602C28.5 10.2214 5.49999 12.0315 5.49999 12.0315ZM28.5 34.0602C28.5 10.2232 51.5 12.0314 51.5 12.0314C51.5 31.3826 28.5019 34.0602 28.5019 34.0602L28.5 34.0602Z" fill="white"/>
<g id="content">
<g id="Frame 1">
<path id="&#208;&#157;&#208;&#181;&#208;&#185;&#209;&#128;&#208;&#190;" d="M84.1908 8.1903H86.6026V25.3333H84.1908V17.5539H75.1818V25.3333H72.77V8.1903H75.1818V15.4731H84.1908V8.1903ZM100.869 19.682H91.0798C91.1507 22.4249 93.1369 23.7491 95.0049 23.7491C96.8966 23.7491 97.937 22.8978 98.4808 21.6446H100.704C100.136 23.82 98.1025 25.6407 95.0049 25.6407C90.9852 25.6407 88.7625 22.756 88.7625 18.9963C88.7625 14.9529 91.4581 12.3992 94.934 12.3992C98.8355 12.3992 101.129 15.6387 100.869 19.682ZM94.934 14.2436C93.0423 14.2436 91.2926 15.284 91.1034 17.8377H98.599C98.5281 16.0406 97.2276 14.2436 94.934 14.2436ZM110.186 8.1903H111.865C111.676 9.60903 110.777 11.0514 108.082 11.0514C105.481 11.0514 104.488 9.60903 104.369 8.1903H106.048C106.143 8.94696 106.71 9.63268 108.105 9.63268C109.5 9.63268 110.092 8.94696 110.186 8.1903ZM111.297 25.3333V15.7332L104.724 25.3333H102.572V12.612H104.724V22.2121L111.297 12.612H113.449V25.3333H111.297ZM116.151 12.612H118.303V14.6219C119.083 13.2741 120.407 12.3992 122.464 12.3992C125.396 12.3992 127.903 14.8583 127.903 19.02C127.903 23.2525 125.396 25.6407 122.464 25.6407C120.407 25.6407 119.083 24.7658 118.303 23.418V29.4713H116.151V12.612ZM118.208 19.02C118.208 22.3776 120.005 23.7964 121.92 23.7964C124.119 23.7964 125.562 22.0702 125.562 19.02C125.562 15.9697 124.119 14.2436 121.92 14.2436C120.005 14.2436 118.208 15.6623 118.208 19.02ZM131.147 19.02C131.147 22.4249 132.991 23.7491 134.954 23.7491C136.916 23.7491 138.76 22.2831 138.76 19.02C138.76 15.615 136.916 14.2909 134.954 14.2909C132.991 14.2909 131.147 15.5441 131.147 19.02ZM134.954 12.3992C137.909 12.3992 141.054 14.4091 141.054 19.02C141.054 23.6308 137.909 25.6407 134.954 25.6407C131.998 25.6407 128.853 23.6308 128.853 19.02C128.853 14.4091 131.998 12.3992 134.954 12.3992Z" fill="white"/>
<path id="&#226;&#128;&#148;" d="M216.5 17.8501H184.973V15.8166H216.5V17.8501Z" fill="white"/>
</g>
<path id="&#208;&#159;&#208;&#190;&#208;&#180;&#209;&#129;&#208;&#190;&#208;&#183;&#208;&#189;&#208;&#176;&#208;&#189;&#208;&#184;&#208;&#181;" d="M86.1534 47.6667H83.7415V32.6044H75.1818V47.6667H72.77V30.5236H86.1534V47.6667ZM90.6416 41.3533C90.6416 44.7583 92.4859 46.0824 94.4485 46.0824C96.4111 46.0824 98.2554 44.6164 98.2554 41.3533C98.2554 37.9483 96.4111 36.6242 94.4485 36.6242C92.4859 36.6242 90.6416 37.8774 90.6416 41.3533ZM94.4485 34.7325C97.4042 34.7325 100.549 36.7424 100.549 41.3533C100.549 45.9642 97.4042 47.9741 94.4485 47.9741C91.4928 47.9741 88.348 45.9642 88.348 41.3533C88.348 36.7424 91.4928 34.7325 94.4485 34.7325ZM113.958 45.7987V50.4805H111.877V47.6667H102.561V50.4805H100.48V45.7987H101.047C102.49 45.7987 103.247 43.907 103.436 39.036L103.601 34.9454H112.185V45.7987H113.958ZM110.033 45.7987V36.8134H105.682L105.564 39.2488C105.375 43.0085 104.831 44.8528 103.838 45.7987H110.033ZM120.336 34.7325C123.457 34.7325 125.349 37.0262 125.656 39.2016H123.481C123.173 37.6882 121.873 36.6242 120.194 36.6242C118.302 36.6242 116.529 38.1139 116.529 41.306C116.529 44.5218 118.302 46.0824 120.194 46.0824C122.015 46.0824 123.268 44.8528 123.575 43.5287H125.798C125.349 45.9169 123.102 47.9741 120.123 47.9741C116.458 47.9741 114.188 45.2075 114.188 41.3297C114.188 37.5464 116.576 34.7325 120.336 34.7325ZM128.861 41.3533C128.861 44.7583 130.705 46.0824 132.667 46.0824C134.63 46.0824 136.474 44.6164 136.474 41.3533C136.474 37.9483 134.63 36.6242 132.667 36.6242C130.705 36.6242 128.861 37.8774 128.861 41.3533ZM132.667 34.7325C135.623 34.7325 138.768 36.7424 138.768 41.3533C138.768 45.9642 135.623 47.9741 132.667 47.9741C129.712 47.9741 126.567 45.9642 126.567 41.3533C126.567 36.7424 129.712 34.7325 132.667 34.7325ZM147.324 40.9986C148.672 41.3769 149.901 42.3464 149.901 44.0489C149.901 46.7918 147.371 47.9741 144.534 47.9741C141.815 47.9741 139.568 46.6972 139.119 43.7888H141.294C141.649 45.4203 142.855 46.177 144.676 46.177C146.473 46.177 147.608 45.3494 147.608 44.1435C147.608 42.6538 146.638 42.0627 144.841 42.0627H142.808V40.2893H144.723C146.213 40.2893 147.111 39.6272 147.111 38.303C147.111 37.0971 146.024 36.5533 144.628 36.5533C143.044 36.5533 141.838 37.1444 141.555 38.8705H139.332C139.781 36.104 141.838 34.6616 144.51 34.6616C147.017 34.6616 149.334 35.8675 149.334 38.2557C149.334 39.5562 148.459 40.4548 147.324 40.9986ZM162.1 47.6667H159.948V42.11H153.658V47.6667H151.507V34.9454H153.658V40.242H159.948V34.9454H162.1V47.6667ZM172.683 42.3464V41.5425C168.781 41.9208 166.298 42.5119 166.298 44.2617C166.298 45.4676 167.22 46.2716 168.757 46.2716C170.767 46.2716 172.683 45.3494 172.683 42.3464ZM168.285 47.9741C165.896 47.9741 163.91 46.6499 163.91 44.309C163.91 41.306 167.315 40.4075 172.517 39.84V39.5326C172.517 37.1917 171.24 36.435 169.632 36.435C167.835 36.435 166.818 37.3808 166.724 38.9651H164.501C164.69 36.2222 167.15 34.6853 169.609 34.6853C173.132 34.6853 174.692 36.3404 174.669 39.9346L174.645 42.8666C174.622 45.0184 174.716 46.4607 174.976 47.6667H172.801C172.73 47.1938 172.659 46.6736 172.635 45.9169C171.855 47.241 170.554 47.9741 168.285 47.9741ZM187.641 47.6667H185.489V42.11H179.199V47.6667H177.047V34.9454H179.199V40.242H185.489V34.9454H187.641V47.6667ZM199.051 47.6667V38.0666L192.478 47.6667H190.326V34.9454H192.478V44.5455L199.051 34.9454H201.203V47.6667H199.051ZM215.018 42.0154H205.229C205.3 44.7583 207.286 46.0824 209.154 46.0824C211.045 46.0824 212.086 45.2312 212.63 43.978H214.852C214.285 46.1533 212.251 47.9741 209.154 47.9741C205.134 47.9741 202.911 45.0893 202.911 41.3297C202.911 37.2863 205.607 34.7325 209.083 34.7325C212.984 34.7325 215.278 37.972 215.018 42.0154ZM209.083 36.5769C207.191 36.5769 205.441 37.6173 205.252 40.171H212.748C212.677 38.374 211.377 36.5769 209.083 36.5769Z" fill="white"/>
</g>
</g>
</svg>
