<svg width="55" height="65" viewBox="0 0 55 65" fill="none" xmlns="http://www.w3.org/2000/svg">
<g id="Group 11">
<path id="XMLID 8" d="M49.5149 16.5856C49.5149 16.9279 49.5149 17.2701 49.1727 17.6124C46.4347 31.3022 37.5363 35.7514 25.9 35.7514H20.0818C18.7128 35.7514 17.3438 36.7782 17.3438 38.1471L14.2636 57.3129L13.5791 62.7888C13.5791 63.8156 14.2636 64.5001 14.9481 64.5001H25.5577C26.9267 64.5001 27.9534 63.4733 27.9534 62.4466V61.7621L30.0069 49.4412V48.7568C30.3492 47.3878 31.3759 46.7033 32.4026 46.7033H34.1139C44.3812 46.7033 52.2529 42.5963 54.3064 30.6177C55.3331 25.484 54.6486 21.3771 52.2529 18.6391C51.5684 17.9546 50.5417 17.2701 49.5149 16.5856Z" fill="#2199D6"/>
<path id="XMLID 6" d="M46.7769 15.559C46.4346 15.559 46.0924 15.2167 45.4079 15.2167C45.0657 15.2167 44.3811 14.8745 44.0389 14.8745C42.3277 14.5322 40.6164 14.5322 38.9052 14.5322H23.1619C22.8197 14.5322 22.4774 14.5322 22.1352 14.8745C21.4507 15.2167 20.7662 15.9012 20.7662 16.5857L17.3438 37.805V38.4894C17.686 37.1205 18.7127 36.0937 20.0817 36.0937H25.8999C37.5363 36.0937 46.4346 31.3023 49.1726 17.9547C49.1726 17.6124 49.1726 17.2702 49.5149 16.928C48.8304 16.5857 48.1459 16.2435 47.4614 15.9012C47.1191 15.559 46.7769 15.559 46.7769 15.559Z" fill="#252C5E"/>
<path id="XMLID 5" d="M20.7662 16.5856C20.7662 15.9011 21.4507 15.2166 22.1352 14.8743C22.4774 14.8743 22.8197 14.5321 23.1619 14.5321H38.9052C40.6164 14.5321 42.6699 14.5321 44.0389 14.8743C44.3811 14.8743 45.0657 14.8743 45.4079 15.2166C45.7502 15.2166 46.0924 15.5588 46.7769 15.5588C47.1191 15.5588 47.1191 15.5588 47.4614 15.9011C48.1459 16.2433 48.8304 16.5856 49.5149 16.9278C50.1993 11.7941 49.5148 8.37165 46.7769 5.29144C43.6967 1.86898 38.2207 0.5 31.3758 0.5H11.1833C9.81432 0.5 8.44533 1.52673 8.44533 2.89571L0.231445 55.6016C0.231445 56.6283 0.915937 57.6551 1.94268 57.6551H14.2635L17.3437 37.8048L20.7662 16.5856Z" fill="#263577"/>
</g>
</svg>
