<svg width="18" height="18" viewBox="0 0 18 18" fill="none" xmlns="http://www.w3.org/2000/svg">
<path d="M16.6 18L10.3 11.7C9.8 12.1 9.225 12.4167 8.575 12.65C7.925 12.8833 7.233 13 6.5 13C4.683 13 3.146 12.3708 1.888 11.1125C0.629001 9.8542 0 8.3167 0 6.5C0 4.6833 0.629001 3.1458 1.888 1.8875C3.146 0.629197 4.683 0 6.5 0C8.317 0 9.85401 0.629197 11.113 1.8875C12.371 3.1458 13 4.6833 13 6.5C13 7.2333 12.883 7.925 12.65 8.575C12.417 9.225 12.1 9.8 11.7 10.3L18 16.6L16.6 18ZM6.5 11C7.75 11 8.812 10.5625 9.688 9.6875C10.562 8.8125 11 7.75 11 6.5C11 5.25 10.562 4.1875 9.688 3.3125C8.812 2.4375 7.75 2 6.5 2C5.25 2 4.188 2.4375 3.312 3.3125C2.438 4.1875 2 5.25 2 6.5C2 7.75 2.438 8.8125 3.312 9.6875C4.188 10.5625 5.25 11 6.5 11Z" fill="white"/>
</svg>
