<svg width="101" height="43" viewBox="0 0 101 43" fill="none" xmlns="http://www.w3.org/2000/svg">
<path id="Vector" fill-rule="evenodd" clip-rule="evenodd" d="M101 22.1969C101 15.0604 97.5211 9.42928 90.8719 9.42928C84.1947 9.42928 80.1547 15.0604 80.1547 22.1412C80.1547 30.5321 84.9242 34.7694 91.7697 34.7694C95.1083 34.7694 97.6333 34.0167 99.5411 32.9574V27.382C97.6333 28.3298 95.445 28.9152 92.6675 28.9152C89.9461 28.9152 87.5333 27.9674 87.2247 24.678H100.944C100.944 24.3156 101 22.866 101 22.1969ZM87.1406 19.5486C87.1406 16.3985 89.0764 15.0883 90.8439 15.0883C92.5553 15.0883 94.3789 16.3985 94.3789 19.5486H87.1406ZM69.3253 9.42928C66.5758 9.42928 64.8083 10.7116 63.8264 11.6037L63.4617 9.87531H57.2894V42.3798L64.3033 40.9023L64.3314 33.0131C65.3414 33.7379 66.8283 34.7694 69.2972 34.7694C74.3192 34.7694 78.8922 30.7551 78.8922 21.9181C78.8642 13.8338 74.235 9.42928 69.3253 9.42928ZM67.6419 28.6365C65.9867 28.6365 65.0047 28.0511 64.3314 27.3263L64.3033 16.9839C65.0328 16.1755 66.0428 15.618 67.6419 15.618C70.195 15.618 71.9625 18.4614 71.9625 22.1133C71.9625 25.8488 70.2231 28.6365 67.6419 28.6365ZM47.6383 7.78454L54.6803 6.27919V0.620178L47.6383 2.09765V7.78454ZM47.6383 9.90319H54.6803V34.2955H47.6383V9.90319ZM40.0914 11.9661L39.6425 9.90319H33.5825V34.2955H40.5964V17.7645C42.2517 15.618 45.0572 16.0082 45.9269 16.3149V9.90319C45.0292 9.56867 41.7467 8.95537 40.0914 11.9661ZM26.0636 3.8539L19.2181 5.3035L19.19 27.6329C19.19 31.7587 22.3042 34.7973 26.4564 34.7973C28.7569 34.7973 30.4403 34.3791 31.3661 33.8773V28.2183C30.4683 28.5807 26.0356 29.8631 26.0356 25.7373V15.841H31.3661V9.90319H26.0356L26.0636 3.8539ZM7.09806 16.9839C7.09806 15.8967 7.99583 15.4786 9.48278 15.4786C11.615 15.4786 14.3083 16.1197 16.4406 17.2627V10.7116C14.1119 9.79168 11.8114 9.42928 9.48278 9.42928C3.7875 9.42928 0 12.3842 0 17.3184C0 25.0125 10.6611 23.7859 10.6611 27.1032C10.6611 28.3856 9.53889 28.8037 7.96778 28.8037C5.63917 28.8037 2.66528 27.8559 0.308611 26.5736V33.2083C2.91778 34.3234 5.555 34.7973 7.96778 34.7973C13.8033 34.7973 17.8153 31.9259 17.8153 26.936C17.7872 18.6287 7.09806 20.1061 7.09806 16.9839Z" fill="#635BFF"/>
</svg>
