<svg width="167" height="147" viewBox="0 0 167 147" fill="none" xmlns="http://www.w3.org/2000/svg">
<rect width="167" height="147" rx="8" fill="white" fill-opacity="0"/>
<rect x="0.5" y="0.5" width="166" height="146" rx="7.5" stroke="white" stroke-opacity="0.08"/>
<g clip-path="url(#clip0_99_1234)">
<path d="M58.75 35.25C58.75 31.9363 61.4363 29.25 64.75 29.25H124.75C128.064 29.25 130.75 31.9363 130.75 35.25V71.25C130.75 74.5637 128.064 77.25 124.75 77.25H64.75C61.4363 77.25 58.75 74.5637 58.75 71.25V35.25Z" fill="#D8E3F3"/>
<path d="M120.715 44.3026H116.943C115.803 44.3026 114.926 44.6534 114.399 45.7938L107.206 62.1973H112.294C112.294 62.1973 113.171 60.0043 113.347 59.478C113.873 59.478 118.873 59.478 119.575 59.478C119.75 60.092 120.189 62.1096 120.189 62.1096H124.75L120.715 44.3026ZM114.75 55.7938C115.189 54.7411 116.68 50.7938 116.68 50.7938C116.68 50.8815 117.119 49.7411 117.294 49.1271L117.645 50.7061C117.645 50.7061 118.61 55.0043 118.785 55.8815H114.75V55.7938Z" fill="#3362AB"/>
<path d="M107.557 56.3201C107.557 60.0043 104.224 62.4605 99.0482 62.4605C96.8552 62.4605 94.75 62.0219 93.6096 61.4956L94.3114 57.4605L94.9254 57.7236C96.5044 58.4254 97.557 58.6885 99.4868 58.6885C100.89 58.6885 102.382 58.1622 102.382 56.9342C102.382 56.1447 101.768 55.6184 99.8377 54.7412C97.9956 53.864 95.5394 52.4605 95.5394 49.9166C95.5394 46.4079 98.9605 44.0394 103.785 44.0394C105.627 44.0394 107.206 44.3903 108.171 44.8289L107.469 48.6886L107.118 48.3377C106.241 47.9868 105.101 47.6359 103.434 47.6359C101.592 47.7236 100.715 48.5131 100.715 49.2149C100.715 50.0043 101.768 50.6184 103.434 51.4078C106.241 52.7236 107.557 54.2149 107.557 56.3201Z" fill="#3362AB"/>
<path d="M64.75 44.478L64.8377 44.1271H72.3816C73.4342 44.1271 74.2237 44.478 74.4868 45.6184L76.1535 53.5131C74.4868 49.3026 70.6272 45.8815 64.75 44.478Z" fill="#F9B50B"/>
<path d="M86.7674 44.3026L79.1359 62.1096H73.9604L69.5745 47.1973C72.7324 49.2148 75.3639 52.3727 76.3288 54.5657L76.8552 56.4078L81.592 44.2148H86.7674V44.3026Z" fill="#3362AB"/>
<path d="M88.785 44.2148H93.6096L90.5394 62.1096H85.7148L88.785 44.2148Z" fill="#3362AB"/>
</g>
<g clip-path="url(#clip1_99_1234)">
<path d="M36.25 75.75C36.25 72.4363 38.9363 69.75 42.25 69.75H102.25C105.564 69.75 108.25 72.4363 108.25 75.75V111.75C108.25 115.064 105.564 117.75 102.25 117.75H42.25C38.9363 117.75 36.25 115.064 36.25 111.75V75.75Z" fill="#FDEACE"/>
<path d="M79.7624 79.541L64.2688 79.5943L64.7383 107.959L80.2318 107.906L79.7624 79.541Z" fill="#FF5F00"/>
<path d="M65.2883 93.8339C65.1924 88.0647 67.7768 82.9386 71.8248 79.6135C68.7693 77.2159 64.9387 75.7741 60.7863 75.7883C50.949 75.822 43.1243 83.9261 43.2902 93.9092C43.4561 103.892 51.5492 111.942 61.3865 111.908C65.539 111.894 69.3212 110.426 72.2967 108.008C68.1395 104.761 65.3842 99.603 65.2883 93.8339Z" fill="#EB001B"/>
<path d="M101.21 93.591C101.376 103.574 93.5513 111.678 83.714 111.712C79.5615 111.726 75.7309 110.284 72.6755 107.887C76.7729 104.561 79.3078 99.4355 79.212 93.6663C79.1161 87.8971 76.3616 82.7893 72.2036 79.4924C75.179 77.074 78.9613 75.6062 83.1137 75.5919C92.9511 75.5582 101.045 83.658 101.21 93.591Z" fill="#F79E1B"/>
</g>
<defs>
<clipPath id="clip0_99_1234">
<rect width="72" height="48" fill="white" transform="translate(58.75 29.25)"/>
</clipPath>
<clipPath id="clip1_99_1234">
<rect width="72" height="48" fill="white" transform="translate(36.25 69.75)"/>
</clipPath>
</defs>
</svg>
