<svg width="28" height="37" viewBox="0 0 28 37" fill="none" xmlns="http://www.w3.org/2000/svg">
<path d="M13.824 36.048C4.60804 36.048 0 28.704 0 18C0 7.392 4.60804 0 13.824 0C23.136 0 27.696 7.392 27.696 18C27.696 28.704 23.136 36.048 13.824 36.048ZM5.95203 18V19.104L21.312 12.672C20.304 7.248 17.712 4.36801 13.824 4.36801C8.83204 4.36801 5.95203 9.168 5.95203 18ZM13.824 31.632C18.864 31.632 21.744 26.832 21.744 18C21.744 17.664 21.696 17.328 21.696 16.992L6.38403 23.472C7.39203 28.848 9.98404 31.632 13.824 31.632Z" fill="white" fill-opacity="0.18"/>
</svg>
